<?xml version="1.0" encoding="UTF-8"?>
<svg xmlns="http://www.w3.org/2000/svg" xmlns:xlink="http://www.w3.org/1999/xlink" width="20px" height="20px" viewBox="0 0 20 20" version="1.1">
<g id="surface197259">
<path style="fill-rule:nonzero;fill:rgb(54.509804%,71.764706%,94.117647%);fill-opacity:1;stroke-width:15;stroke-linecap:butt;stroke-linejoin:round;stroke:rgb(0%,0%,0%);stroke-opacity:1;stroke-miterlimit:10;" d="M 9.319414 122.537343 L 86 41.809317 L 162.680586 122.537343 Z M 9.319414 122.537343 " transform="matrix(0.106163,0,0,0.106163,0.87,0.87)"/>
<path style="fill-rule:nonzero;fill:rgb(30.588235%,47.843137%,70.980392%);fill-opacity:1;stroke-width:15;stroke-linecap:butt;stroke-linejoin:round;stroke:rgb(0%,0%,0%);stroke-opacity:1;stroke-miterlimit:10;" d="M 86 44.936884 L 14.323521 120.403238 L 157.676479 120.403238 L 86 44.936884 M 86 38.68175 L 167.684693 124.708242 L 4.315307 124.708242 Z M 86 38.68175 " transform="matrix(0.106163,0,0,0.106163,0.87,0.87)"/>
<path style=" stroke:none;fill-rule:nonzero;fill:rgb(100%,100%,100%);fill-opacity:1;" d="M 1.859375 13.878906 L 10 5.308594 L 18.140625 13.878906 Z M 1.859375 13.878906 "/>
<path style=" stroke:none;fill-rule:nonzero;fill:rgb(100%,100%,100%);fill-opacity:1;" d="M 10 5.640625 L 17.609375 13.652344 L 2.390625 13.652344 L 10 5.640625 M 10 4.976562 L 1.328125 14.109375 L 18.671875 14.109375 Z M 10 4.976562 "/>
</g>
</svg>
